<svg xmlns="http://www.w3.org/2000/svg" viewBox="0 0 1200 630">
  <defs>
    <linearGradient id="bg" x1="0%" x2="100%" y1="0%" y2="100%">
      <stop offset="0%" stop-color="#14181c" />
      <stop offset="100%" stop-color="#090b0d" />
    </linearGradient>
    <linearGradient id="accent" x1="0%" x2="100%" y1="0%" y2="0%">
      <stop offset="0%" stop-color="#f1be32" />
      <stop offset="100%" stop-color="#c89411" />
    </linearGradient>
  </defs>

  <rect width="1200" height="630" fill="url(#bg)" />
  <rect x="52" y="52" width="1096" height="526" rx="22" fill="none" stroke="#f1be32" stroke-width="4" opacity="0.8" />
  <rect x="86" y="86" width="1028" height="458" rx="18" fill="none" stroke="#ffffff" stroke-width="1.5" opacity="0.12" />

  <g opacity="0.2">
    <path d="M0 148h1200" stroke="#ffffff" stroke-width="1" />
    <path d="M0 332h1200" stroke="#ffffff" stroke-width="1" />
    <path d="M0 516h1200" stroke="#ffffff" stroke-width="1" />
    <path d="M210 0v630" stroke="#ffffff" stroke-width="1" />
    <path d="M600 0v630" stroke="#ffffff" stroke-width="1" />
    <path d="M990 0v630" stroke="#ffffff" stroke-width="1" />
  </g>

  <rect x="106" y="108" width="164" height="34" rx="17" fill="url(#accent)" />
  <text x="188" y="131" fill="#111418" font-family="Oxanium, Arial, sans-serif" font-size="16" font-weight="700" letter-spacing="5" text-anchor="middle">GLOBAL MACHINERY</text>

  <text x="106" y="248" fill="#f3f0e8" font-family="Oxanium, Arial, sans-serif" font-size="92" font-weight="700">JIUYU</text>
  <text x="106" y="336" fill="#f3f0e8" font-family="Oxanium, Arial, sans-serif" font-size="92" font-weight="700">MACHINERY</text>

  <text x="106" y="410" fill="#b8bcc1" font-family="Barlow Condensed, Arial, sans-serif" font-size="36" letter-spacing="1">
    Heavy-duty equipment showcase for global buyers,
  </text>
  <text x="106" y="452" fill="#b8bcc1" font-family="Barlow Condensed, Arial, sans-serif" font-size="36" letter-spacing="1">
    flagship machinery, and application knowledge.
  </text>

  <g transform="translate(775 126)">
    <rect width="275" height="336" rx="20" fill="#111519" stroke="#ffffff" stroke-width="1.5" opacity="0.95" />
    <rect x="18" y="18" width="239" height="170" rx="14" fill="#0c0f12" stroke="#f1be32" stroke-width="2" opacity="0.95" />
    <path d="M36 160l44-76h80l38 50h34l25 26" fill="none" stroke="#f1be32" stroke-width="8" stroke-linecap="round" stroke-linejoin="round" />
    <circle cx="92" cy="226" r="28" fill="none" stroke="#f3f0e8" stroke-width="7" />
    <circle cx="202" cy="226" r="28" fill="none" stroke="#f3f0e8" stroke-width="7" />
    <path d="M44 272h187" stroke="#ffffff" stroke-width="1.5" opacity="0.16" />
    <text x="30" y="304" fill="#f1be32" font-family="Oxanium, Arial, sans-serif" font-size="20" font-weight="700" letter-spacing="2">FLAGSHIP RANGE</text>
    <text x="30" y="334" fill="#b8bcc1" font-family="Barlow Condensed, Arial, sans-serif" font-size="24">Catalog-first layout</text>
    <text x="30" y="362" fill="#b8bcc1" font-family="Barlow Condensed, Arial, sans-serif" font-size="24">Industrial visual language</text>
    <text x="30" y="390" fill="#b8bcc1" font-family="Barlow Condensed, Arial, sans-serif" font-size="24">Inquiry-ready contact path</text>
  </g>
</svg>
